<svg xmlns="http://www.w3.org/2000/svg" version="1.1" xmlns:xlink="http://www.w3.org/1999/xlink" xmlns:svgjs="http://svgjs.dev/svgjs" width="100%" height="100%" viewBox="0 0 1000 625"><g transform="matrix(1,0,0,1,0,0)"><svg viewBox="0 0 512 320" data-background-color="#fafafa" preserveAspectRatio="xMidYMid meet" height="625" width="1000" xmlns="http://www.w3.org/2000/svg" xmlns:xlink="http://www.w3.org/1999/xlink"><g id="tight-bounds" transform="matrix(1,0,0,1,0,0)"><svg viewBox="0 0 512 320" height="320" width="512"><g><svg></svg></g><g><svg viewBox="0 0 512 320" height="320" width="512"><g><path xmlns="http://www.w3.org/2000/svg" d="M96 160c0-88.366 71.634-160 160-160 88.366 0 160 71.634 160 160 0 88.366-71.634 160-160 160-88.366 0-160-71.634-160-160zM256 306.383c80.845 0 146.383-65.538 146.383-146.383 0-80.845-65.538-146.383-146.383-146.383-80.845 0-146.383 65.538-146.383 146.383 0 80.845 65.538 146.383 146.383 146.383z" fill="#FFFFFF" fill-rule="nonzero" stroke="none" stroke-width="1" stroke-linecap="butt" stroke-linejoin="miter" stroke-miterlimit="10" stroke-dasharray="" stroke-dashoffset="0" font-family="none" font-weight="none" font-size="none" text-anchor="none" style="mix-blend-mode: normal" data-fill-palette-color="tertiary"></path></g><g transform="matrix(1,0,0,1,116,20)"><svg viewBox="0 0 280 280" height="280" width="280"><g><svg viewBox="0 0 280 280" height="280" width="280"><g><svg viewBox="0 0 280 280" height="280" width="280"><g id="textblocktransform"><svg viewBox="0 0 280 280" height="280" width="280" id="textblock"><g><svg viewBox="0 0 280 280" height="280" width="280"><g transform="matrix(1,0,0,1,90.50252531694167,90.50252531694167)"><svg viewBox="0 0 98.99494936611666 98.99494936611666" height="98.99494936611666" width="98.99494936611666"><g><circle r="49" cx="49.49747468305833" cy="49.49747468305833" fill="#e77917" data-fill-palette-color="accent"></circle></g></svg></g><g><path d="M13.756 82.866l-3.273 9.021 23.349 8.473-1.287 3.545-23.349-8.474-3.273 9.021-2.907-1.055 7.833-21.586z" fill="#FFFFFF" data-fill-palette-color="primary"></path><path d="M39.787 63.182l-8.269 12.65 10.838 7.085-2.069 3.164-23.379-15.282 2.069-3.165 9.886 6.462 8.269-12.649-9.886-6.463 2.069-3.164 23.379 15.282-2.069 3.165z" fill="#FFFFFF" data-fill-palette-color="primary"></path><path d="M59.476 56.692l13.626-12.103 2.054 2.312-16.453 14.614-18.548-20.884 15.841-14.07 2.054 2.312-13.015 11.559 5.949 6.698 12.127-10.771 2.027 2.282-12.127 10.771z" fill="#FFFFFF" data-fill-palette-color="primary"></path><path d="M75.86 25.715v0l8.2 16.733-3.028 1.484-12.29-25.082 4.469-2.19 15.199 14.125c0.581 0.582 1.175 1.22 1.782 1.915 0.613 0.692 1.043 1.2 1.291 1.523v0c-0.086-0.358-0.183-0.858-0.292-1.502-0.111-0.649-0.213-1.273-0.306-1.871-0.09-0.607-0.139-1.009-0.146-1.206v0l-1.977-20.605 4.362-2.137 12.291 25.081-3.054 1.497-8.2-16.733c-0.454-0.926-0.883-1.841-1.29-2.745-0.412-0.902-0.804-1.791-1.174-2.668v0c0.225 1.2 0.414 2.282 0.567 3.243 0.153 0.962 0.258 1.796 0.315 2.501v0l1.89 20.269-2.383 1.168-14.941-13.874-4.026-4.203c0.46 0.878 0.923 1.755 1.388 2.629 0.466 0.875 0.917 1.758 1.353 2.648z" fill="#FFFFFF" data-fill-palette-color="primary"></path><path d="M116.615 26.708l13.866-2.641 0.579 3.038-17.58 3.349-5.227-27.438 3.714-0.708z" fill="#FFFFFF" data-fill-palette-color="primary"></path><path d="M154.546 20.248l-12.704-0.789-3.713 7.955-3.912-0.243 13.11-27.171 4.292 0.266 9.47 28.573-3.863-0.24zM149.241 2.977v0c-0.271 0.723-0.588 1.529-0.949 2.42-0.368 0.883-0.706 1.659-1.014 2.326v0l-4.099 8.86 10.425 0.648-3.013-9.422c-0.157-0.47-0.359-1.138-0.605-2.007-0.253-0.862-0.501-1.803-0.745-2.825z" fill="#FFFFFF" data-fill-palette-color="primary"></path><path d="M189.152 28.867v0c-0.714 2.382-2.135 3.973-4.263 4.772-2.136 0.804-4.746 0.743-7.829-0.181v0l-10.865-3.256 8.02-26.755 9.718 2.913c3.141 0.941 5.335 2.189 6.584 3.744 1.242 1.553 1.539 3.412 0.89 5.577v0c-0.474 1.58-1.314 2.775-2.523 3.587-1.208 0.811-2.679 1.155-4.412 1.031v0c2.051 0.893 3.478 2.098 4.28 3.615 0.802 1.518 0.935 3.168 0.4 4.953zM187.628 15.017v0c0.432-1.44 0.247-2.62-0.553-3.54-0.802-0.914-2.14-1.652-4.013-2.213v0l-6.096-1.827-2.538 8.466 6.096 1.828c1.937 0.58 3.491 0.651 4.665 0.211 1.173-0.44 1.986-1.415 2.439-2.925zM185.569 27.48v0c0.945-3.153-0.796-5.393-5.223-6.721v0l-6.766-2.027-2.893 9.65 7.052 2.114c2.21 0.663 3.945 0.735 5.205 0.217 1.259-0.518 2.134-1.596 2.625-3.233z" fill="#FFFFFF" data-fill-palette-color="primary"></path><path d="M215.714 44.876v0c-1.342 2.196-3.242 3.373-5.7 3.532-2.458 0.158-5.25-0.718-8.377-2.629v0c-5.805-3.547-7.936-7.624-6.392-12.23v0l3.503 1.288c-0.511 1.652-0.383 3.172 0.382 4.559 0.756 1.39 2.145 2.702 4.165 3.936v0c2.088 1.276 3.917 1.899 5.487 1.868 1.572-0.022 2.781-0.725 3.627-2.109v0c0.475-0.777 0.686-1.518 0.632-2.221-0.063-0.701-0.318-1.406-0.764-2.115v0c-0.456-0.707-1.064-1.441-1.824-2.202-0.759-0.76-1.602-1.594-2.527-2.502v0c-1.084-1.044-1.963-1.959-2.636-2.745-0.673-0.786-1.19-1.491-1.548-2.115-0.361-0.634-0.628-1.237-0.8-1.81v0c-0.252-0.863-0.316-1.728-0.191-2.595 0.122-0.876 0.456-1.76 1-2.651v0c1.245-2.037 2.986-3.132 5.222-3.285 2.237-0.153 4.811 0.66 7.722 2.439v0c2.707 1.654 4.522 3.332 5.446 5.034 0.929 1.706 1.07 3.733 0.423 6.08v0l-3.519-1.378c0.421-1.48 0.315-2.804-0.32-3.972-0.631-1.173-1.815-2.29-3.552-3.351v0c-1.907-1.165-3.556-1.737-4.949-1.715-1.384 0.02-2.459 0.656-3.225 1.911v0c-0.447 0.732-0.624 1.454-0.529 2.167 0.097 0.722 0.412 1.468 0.947 2.238v0c0.486 0.749 1.695 2.053 3.629 3.913v0c0.782 0.774 1.547 1.549 2.296 2.327 0.749 0.777 1.412 1.58 1.989 2.407v0c0.342 0.474 0.64 0.98 0.896 1.518 0.253 0.529 0.428 1.072 0.524 1.63v0c0.138 0.731 0.131 1.495-0.02 2.291-0.148 0.79-0.487 1.62-1.017 2.487z" fill="#FFFFFF" data-fill-palette-color="primary"></path><path d="M220.575 53.619l2.899 2.549-2.866 3.258-2.899-2.549z" fill="#FFFFFF" data-fill-palette-color="primary"></path><path d="M236.27 74.764v0c2.329 3.141 5.636 4.349 9.924 3.621v0l0.599 3.405c-2.619 0.509-5.053 0.302-7.303-0.621-2.249-0.924-4.192-2.489-5.827-4.696v0c-1.683-2.271-2.658-4.574-2.924-6.91-0.266-2.336 0.15-4.589 1.247-6.76 1.098-2.171 2.835-4.138 5.213-5.9v0c2.388-1.77 4.76-2.853 7.115-3.25 2.355-0.396 4.595-0.116 6.721 0.842 2.125 0.958 4.03 2.572 5.712 4.843v0c1.77 2.388 2.782 4.73 3.035 7.026 0.253 2.296-0.26 4.502-1.539 6.617v0l-3.087-2.17c0.916-1.49 1.295-3.067 1.138-4.73-0.166-1.665-0.835-3.288-2.007-4.87v0c-1.841-2.484-4.072-3.824-6.691-4.018-2.623-0.2-5.326 0.732-8.11 2.795v0c-1.827 1.354-3.186 2.866-4.076 4.536-0.891 1.679-1.275 3.395-1.15 5.149 0.128 1.759 0.798 3.456 2.01 5.091z" fill="#FFFFFF" data-fill-palette-color="primary"></path><path d="M257.138 104.408l-4.545-11.89-8.778-0.083-1.4-3.662 30.161 0.677 1.535 4.016-22.083 20.456-1.382-3.615zM270.659 92.426v0c-0.77 0.052-1.636 0.098-2.596 0.138-0.956 0.031-1.802 0.045-2.536 0.04v0l-9.763-0.059 3.729 9.756 7.328-6.646c0.362-0.338 0.887-0.798 1.575-1.382 0.68-0.587 1.434-1.203 2.263-1.847z" fill="#FFFFFF" data-fill-palette-color="primary"></path><path d="M40.634 193.348l-3.337-9.156-23.684 8.631-1.308-3.59 23.684-8.631-3.334-9.148 2.952-1.075 7.979 21.894z" fill="#FFFFFF" data-fill-palette-color="primary"></path><path d="M43.702 220.188l-8.4-12.826-10.99 7.198-2.105-3.213 23.716-15.533 2.105 3.213-10.031 6.569 8.401 12.826 10.03-6.569 2.105 3.213-23.717 15.533-2.104-3.213z" fill="#FFFFFF" data-fill-palette-color="primary"></path><path d="M49.325 240.449l13.839 12.269-2.084 2.351-16.713-14.816 18.806-21.215 16.094 14.267-2.085 2.352-13.22-11.72-6.028 6.801 12.317 10.918-2.058 2.322-12.317-10.919z" fill="#FFFFFF" data-fill-palette-color="primary"></path><path d="M82.898 245.576v0l-8.304 16.993-3.074-1.503 12.448-25.471 4.535 2.217-1.849 20.98c-0.108 0.828-0.251 1.702-0.427 2.623-0.176 0.921-0.313 1.579-0.41 1.976v0c0.229-0.288 0.568-0.677 1.015-1.17 0.448-0.492 0.884-0.96 1.308-1.403 0.433-0.447 0.726-0.737 0.88-0.869v0l15.283-14.415 4.428 2.164-12.448 25.471-3.11-1.52 8.304-16.993c0.458-0.938 0.925-1.854 1.399-2.747 0.471-0.888 0.942-1.753 1.413-2.596v0c-0.821 0.924-1.569 1.75-2.244 2.478-0.678 0.72-1.283 1.323-1.817 1.81v0l-15.059 14.136-2.429-1.187 1.812-20.61 0.871-5.847c-0.417 0.914-0.831 1.829-1.242 2.746-0.414 0.923-0.841 1.835-1.283 2.737z" fill="#FFFFFF" data-fill-palette-color="primary"></path><path d="M113.862 274.018l14.074 2.665-0.584 3.087-17.848-3.379 5.274-27.855 3.773 0.714z" fill="#FFFFFF" data-fill-palette-color="primary"></path><path d="M155.08 270.459l-12.893 0.812-2.734 8.479-3.972 0.25 9.766-29.022 4.361-0.274 13.141 27.578-3.912 0.247zM147.559 253.731v0c-0.185 0.765-0.404 1.618-0.658 2.561-0.254 0.936-0.495 1.76-0.724 2.474v0l-3.014 9.435 10.583-0.666-4.221-9.1c-0.216-0.46-0.506-1.108-0.872-1.944-0.359-0.837-0.724-1.757-1.094-2.76z" fill="#FFFFFF" data-fill-palette-color="primary"></path><path d="M191.048 262.153v0c0.725 2.414 0.41 4.557-0.945 6.429-1.355 1.872-3.599 3.278-6.732 4.219v0l-11.026 3.31-8.151-27.154 9.87-2.962c3.185-0.956 5.738-1.125 7.659-0.508 1.923 0.624 3.215 2.035 3.874 4.232v0c0.482 1.605 0.437 3.087-0.134 4.446-0.569 1.365-1.623 2.48-3.162 3.345v0c2.238-0.387 4.12-0.164 5.648 0.668 1.523 0.841 2.556 2.166 3.099 3.975zM182.031 251.268v0c-0.44-1.465-1.258-2.362-2.453-2.69-1.187-0.324-2.73-0.201-4.628 0.369v0l-6.191 1.858 2.578 8.59 6.191-1.859c1.962-0.589 3.316-1.398 4.063-2.427 0.753-1.031 0.9-2.311 0.44-3.841zM187.246 262.983v0c-0.96-3.197-3.688-4.121-8.185-2.772v0l-6.86 2.06 2.937 9.783 7.146-2.145c2.248-0.675 3.763-1.585 4.545-2.729 0.775-1.142 0.914-2.541 0.417-4.197z" fill="#FFFFFF" data-fill-palette-color="primary"></path><path d="M219.079 245.761v0c1.367 2.235 1.551 4.5 0.553 6.795-1.002 2.288-3.085 4.401-6.251 6.336v0c-5.895 3.605-10.563 3.645-14.004 0.121v0l2.79-2.57c1.251 1.23 2.681 1.822 4.288 1.773 1.608-0.048 3.436-0.698 5.484-1.95v0c2.116-1.294 3.528-2.656 4.236-4.087 0.702-1.427 0.623-2.844-0.238-4.251v0c-0.486-0.794-1.056-1.326-1.712-1.595-0.665-0.272-1.423-0.37-2.273-0.294v0c-0.847 0.081-1.787 0.29-2.821 0.626-1.037 0.33-2.183 0.707-3.436 1.13v0c-1.444 0.493-2.677 0.861-3.698 1.104-1.018 0.248-1.895 0.387-2.633 0.418-0.734 0.036-1.403 0-2.006-0.107v0c-0.89-0.181-1.702-0.526-2.435-1.037-0.727-0.514-1.367-1.222-1.918-2.124v0c-1.266-2.071-1.452-4.152-0.556-6.243 0.899-2.086 2.827-4.032 5.783-5.84v0c2.746-1.679 5.102-2.543 7.068-2.591 1.966-0.048 3.86 0.761 5.684 2.429v0l-2.877 2.543c-1.142-1.064-2.386-1.581-3.733-1.553-1.352 0.032-2.908 0.586-4.666 1.661v0c-1.935 1.183-3.217 2.407-3.846 3.673-0.624 1.262-0.547 2.529 0.23 3.8v0c0.455 0.743 1.027 1.239 1.717 1.487 0.692 0.239 1.512 0.299 2.46 0.18v0c0.899-0.098 2.638-0.588 5.216-1.471v0c1.06-0.344 2.112-0.676 3.156-0.995 1.05-0.323 2.084-0.55 3.103-0.681v0c0.589-0.095 1.181-0.134 1.777-0.116 0.605 0.02 1.177 0.114 1.716 0.283v0c0.732 0.215 1.419 0.574 2.062 1.078 0.649 0.5 1.242 1.189 1.78 2.068z" fill="#FFFFFF" data-fill-palette-color="primary"></path><path d="M228.984 241.722l2.954-2.592 2.908 3.314-2.954 2.592z" fill="#FFFFFF" data-fill-palette-color="primary"></path><path d="M249.115 220.599v0c2.37-3.185 2.573-6.751 0.611-10.698v0l3.132-1.586c1.26 2.396 1.772 4.821 1.539 7.274-0.243 2.455-1.198 4.803-2.866 7.044v0c-1.711 2.3-3.661 3.924-5.851 4.873-2.191 0.94-4.501 1.198-6.93 0.775-2.43-0.432-4.851-1.545-7.263-3.34v0c-2.422-1.802-4.173-3.788-5.252-5.959-1.07-2.172-1.454-4.43-1.152-6.775 0.311-2.346 1.323-4.669 3.034-6.968v0c1.802-2.422 3.781-4.096 5.936-5.021 2.156-0.915 4.452-1.065 6.885-0.448v0l-1.205 3.642c-1.716-0.456-3.361-0.362-4.935 0.282-1.568 0.648-2.95 1.776-4.144 3.382v0c-1.87 2.513-2.515 5.075-1.938 7.685 0.577 2.601 2.276 4.951 5.099 7.051v0c1.851 1.377 3.72 2.253 5.605 2.627 1.885 0.374 3.662 0.242 5.331-0.397 1.675-0.636 3.129-1.783 4.364-3.443z" fill="#FFFFFF" data-fill-palette-color="primary"></path><path d="M261.9 183.136l-4.633 12.059 6.569 6.018-1.427 3.715-22.316-20.968 1.567-4.078 30.546-0.459-1.405 3.659zM243.559 183.005v0c0.618 0.487 1.302 1.042 2.054 1.665 0.745 0.621 1.394 1.184 1.948 1.689v0l7.322 6.67 3.802-9.899-10.031 0.048c-0.508 0.005-1.218-0.001-2.13-0.017-0.911-0.022-1.899-0.074-2.965-0.156z" fill="#FFFFFF" data-fill-palette-color="primary"></path><path d="M3.939 142.804c0-5.981 4.849-10.83 10.83-10.83 5.981 0 10.83 4.849 10.83 10.83 0 5.981-4.849 10.83-10.83 10.829-5.981 0-10.83-4.849-10.83-10.829z" fill="#e77917" data-fill-palette-color="primary"></path><path d="M255.325 142.804c0-5.981 4.849-10.83 10.829-10.83 5.981 0 10.83 4.849 10.83 10.83 0 5.981-4.849 10.83-10.83 10.829-5.981 0-10.83-4.849-10.829-10.829z" fill="#e77917" data-fill-palette-color="primary"></path></g></svg></g></svg></g></svg></g></svg></g></svg></g></svg></g><defs></defs></svg><rect width="512" height="320" fill="none" stroke="none" visibility="hidden"></rect></g></svg></g></svg>
