<svg xmlns="http://www.w3.org/2000/svg" version="1.1" xmlns:xlink="http://www.w3.org/1999/xlink" xmlns:svgjs="http://svgjs.dev/svgjs" width="100%" height="100%" viewBox="0 0 1000 623"><g transform="matrix(1,0,0,1,-0.6060606060606233,0.2522267206477409)"><svg viewBox="0 0 396 247" data-background-color="#ffffff" preserveAspectRatio="xMidYMid meet" height="623" width="1000" xmlns="http://www.w3.org/2000/svg" xmlns:xlink="http://www.w3.org/1999/xlink"><g id="tight-bounds" transform="matrix(1,0,0,1,0.2400000000000091,-0.09999999999999432)"><svg viewBox="0 0 395.52 247.2" height="247.2" width="395.52"><g><svg></svg></g><g><svg viewBox="0 0 395.52 247.2" height="247.2" width="395.52"><g transform="matrix(1,0,0,1,75.54432,96.02883496206373)"><svg viewBox="0 0 244.43135999999998 55.14233007587253" height="55.14233007587253" width="244.43135999999998"><g><svg viewBox="0 0 244.43135999999998 55.14233007587253" height="55.14233007587253" width="244.43135999999998"><g><svg viewBox="0 0 244.43135999999998 55.14233007587253" height="55.14233007587253" width="244.43135999999998"><g><svg viewBox="0 0 244.43135999999998 55.14233007587253" height="55.14233007587253" width="244.43135999999998"><g id="textblocktransform"><svg viewBox="0 0 244.43135999999998 55.14233007587253" height="55.14233007587253" width="244.43135999999998" id="textblock"><g><svg viewBox="0 0 244.43135999999998 55.14233007587253" height="55.14233007587253" width="244.43135999999998"><g transform="matrix(1,0,0,1,0,0)"><svg width="244.43135999999998" viewBox="0.4000000059604645 -35.900001525878906 197.6800079345703 44.60000228881836" height="55.14233007587253" data-palette-color="#ffffff"><path d="M23.8-25.35L14.65-0.65Q12.7 4.5 10.03 6.6 7.35 8.7 3.9 8.7L3.9 8.7Q2.6 8.7 1.8 8.45L1.8 8.45 1.8 4.9Q2.55 5.1 3.5 5.1L3.5 5.1Q8.55 5.1 10.65-0.65L10.65-0.65 0.4-25.35 4.85-25.35 8.15-17 12.6-5.5Q13-6.8 16.6-17L16.6-17 19.55-25.35 23.8-25.35ZM46.8-5L46.8-1.3Q43.85 0.25 39.6 0.25L39.6 0.25Q33.85 0.25 30.32-3.28 26.8-6.8 26.8-12.6L26.8-12.6Q26.8-18.65 29.95-22.15 33.1-25.65 38.05-25.65L38.05-25.65Q42.8-25.65 45.6-22.6 48.4-19.55 48.4-13.95L48.4-13.95Q48.4-12.35 48.15-11L48.15-11 30.85-11Q31.3-7.25 33.7-5.25 36.1-3.25 40-3.25L40-3.25Q44.25-3.25 46.8-5L46.8-5ZM38.05-22.2L38.05-22.2Q35.2-22.2 33.2-20.15 31.2-18.1 30.85-14.3L30.85-14.3 44.45-14.3 44.45-15.3Q44.45-18.45 42.75-20.33 41.05-22.2 38.05-22.2ZM69.65-6.75L69.65-6.75Q69.65-3.5 67.37-1.6 65.09 0.3 61.15 0.3L61.15 0.3Q56.55 0.3 53.7-1.25L53.7-1.25 53.7-5.1Q57.05-3.1 60.9-3.1L60.9-3.1Q63.2-3.1 64.4-4 65.59-4.9 65.59-6.45L65.59-6.45Q65.59-8.25 64.27-9.25 62.95-10.25 59.85-11.5L59.85-11.5Q57-12.6 55.27-14.25 53.55-15.9 53.55-18.7L53.55-18.7Q53.55-21.85 55.92-23.73 58.3-25.6 61.85-25.6L61.85-25.6Q65.8-25.6 68.2-24.5L68.2-24.5 68.2-20.75Q65.9-22.15 61.9-22.15L61.9-22.15Q59.9-22.15 58.72-21.23 57.55-20.3 57.55-18.85L57.55-18.85Q57.55-17.95 57.9-17.28 58.25-16.6 59.27-15.95 60.3-15.3 60.77-15.08 61.25-14.85 62.85-14.15L62.85-14.15Q66.05-12.85 67.84-11.2 69.65-9.55 69.65-6.75ZM79.14-25.35L79.14 0 75.19 0 75.19-25.35 79.14-25.35ZM78.99-35.15Q79.74-34.4 79.74-33.3 79.74-32.2 78.99-31.48 78.24-30.75 77.14-30.75 76.04-30.75 75.32-31.48 74.59-32.2 74.59-33.3 74.59-34.4 75.32-35.15 76.04-35.9 77.14-35.9 78.24-35.9 78.99-35.15ZM89.24-12.4L89.24-12.4Q89.24-8.3 91.24-5.75 93.24-3.2 96.29-3.2L96.29-3.2Q99.39-3.2 101.57-5.5 103.74-7.8 103.74-12.85L103.74-12.85Q103.74-17.65 101.49-19.9 99.24-22.15 96.54-22.15L96.54-22.15Q93.39-22.15 91.32-19.63 89.24-17.1 89.24-12.4ZM107.69-35.35L107.69 0 103.74 0 103.74-3.75Q101.04 0.4 95.94 0.4L95.94 0.4Q90.89 0.4 88.02-3.35 85.14-7.1 85.14-12.45L85.14-12.45Q85.14-18.4 88.19-22.08 91.24-25.75 96.04-25.75L96.04-25.75Q100.99-25.75 103.74-21.5L103.74-21.5 103.74-35.35 107.69-35.35ZM117.59-4.65Q118.44-3.8 118.44-2.55 118.44-1.3 117.59-0.45 116.74 0.4 115.49 0.4 114.24 0.4 113.39-0.45 112.54-1.3 112.54-2.55 112.54-3.8 113.39-4.65 114.24-5.5 115.49-5.5 116.74-5.5 117.59-4.65ZM125.89-12.4L125.89-12.4Q125.89-8.3 127.89-5.75 129.88-3.2 132.94-3.2L132.94-3.2Q136.03-3.2 138.21-5.5 140.38-7.8 140.38-12.85L140.38-12.85Q140.38-17.65 138.13-19.9 135.88-22.15 133.19-22.15L133.19-22.15Q130.03-22.15 127.96-19.63 125.89-17.1 125.89-12.4ZM144.34-35.35L144.34 0 140.38 0 140.38-3.75Q137.69 0.4 132.59 0.4L132.59 0.4Q127.54 0.4 124.66-3.35 121.79-7.1 121.79-12.45L121.79-12.45Q121.79-18.4 124.84-22.08 127.89-25.75 132.69-25.75L132.69-25.75Q137.63-25.75 140.38-21.5L140.38-21.5 140.38-35.35 144.34-35.35ZM170.13-5L170.13-1.3Q167.18 0.25 162.93 0.25L162.93 0.25Q157.18 0.25 153.66-3.28 150.13-6.8 150.13-12.6L150.13-12.6Q150.13-18.65 153.28-22.15 156.43-25.65 161.38-25.65L161.38-25.65Q166.13-25.65 168.93-22.6 171.73-19.55 171.73-13.95L171.73-13.95Q171.73-12.35 171.48-11L171.48-11 154.18-11Q154.63-7.25 157.03-5.25 159.43-3.25 163.33-3.25L163.33-3.25Q167.58-3.25 170.13-5L170.13-5ZM161.38-22.2L161.38-22.2Q158.53-22.2 156.53-20.15 154.53-18.1 154.18-14.3L154.18-14.3 167.78-14.3 167.78-15.3Q167.78-18.45 166.08-20.33 164.38-22.2 161.38-22.2ZM198.08-25.35L189.03 0 184.18 0 175.33-25.35 179.43-25.35 182.93-14.65 186.63-3.1Q187.08-5.25 190.38-14.65L190.38-14.65 193.98-25.35 198.08-25.35Z" opacity="1" transform="matrix(1,0,0,1,0,0)" fill="#ffffff" class="wordmark-text-0" data-fill-palette-color="primary" id="text-0"></path></svg></g></svg></g></svg></g></svg></g></svg></g></svg></g></svg></g><path d="M200.52 90.029L200.52 30.43 386.86 30.43 386.86 216.77 200.52 216.77 200.52 157.171 205.493 157.171 205.493 211.797 381.887 211.797 381.887 35.403 205.493 35.403 205.493 90.029Z" fill="#ffffff" stroke="transparent" data-fill-palette-color="primary"></path></svg></g><defs></defs></svg><rect width="395.52" height="247.2" fill="none" stroke="none" visibility="hidden"></rect></g></svg></g></svg>